<svg version="1.0" xmlns="http://www.w3.org/2000/svg" width="266.667" height="266.667" viewBox="0 0 200 200"><path d="M34.5 46.2c0 37-1.3 78.3-2.5 78.3 0 0-.1 4.9-.1 11-.1 12.5.7 21 2.7 27.4.7 2.5 1 4.9.7 5.4-.3.6-.1.7.4.4.6-.4 1.6.6 2.3 2.2.6 1.6 2.7 4.3 4.5 6.1 1.9 1.8 3.2 3.7 2.9 4.1-.3.5.3.6 1.2.2 1.2-.4 1.5-.3 1 .6-.4.6-.4 1 .1.9 1.2-.4 7.3 2.3 6.9 3.1-.2.3 1 .7 2.7.8 3.1.3 5 2 4 3.7-.3.5-.1.6.6.2.6-.4.9-1.1.6-1.6-.3-.5 1.4-.7 3.8-.6 2.4.2 6.1-.2 8.2-1 2.1-.7 4.2-1.1 4.6-.8.4.2 1.1-.1 1.5-.7.5-.8.3-.9-.6-.4-.9.5-1.1.4-.6-.4.4-.7 1.3-1 1.9-.8.7.2 2.9-1.4 5-3.5 2.1-2.2 4.3-3.6 4.9-3.2.6.4.8.3.4-.4-.8-1.3 3.8-8.4 4.8-7.4.4.3.4-.2 0-1.2-.5-1.3-.4-1.7.3-1.3.6.4 1 .1 1-.6-.3-2.3 4.5-11.7 5.9-11.7.8 0 1.4-.5 1.4-1.1 0-.5-.5-.7-1.2-.3-.8.5-.9.2-.5-1 .4-1 .7-2 .7-2.2 0-.2.4-.4 1-.4.8 0 1.9 4 2.5 8.9.1.9.7 2.9 1.4 4.6.7 1.6 1.4 4 1.4 5.2.1 1.1.5 2 .8 1.8.3-.2 1.4 1 2.4 2.8 2.1 3.8 13.4 14.7 14.3 13.9.5-.5 5.2 1.1 4.8 1.7-.2.3 2.1.8 5.3.9 3.1.2 6.5.5 7.6.6 1.1.1 4.3-.4 7-1.1 6.1-1.6 5.8-1.6 4.9-.1-.4.7.1.5 1.2-.4 1-.9 2.6-1.8 3.4-2 .8-.2 1.7-.5 2-.8.3-.3 3.2-1.8 6.5-3.3 3.3-1.6 7.2-3.7 8.5-4.8l2.5-1.9-4.5.7c-2.5.4-7.3.7-10.8.6-11.6-.3-23.4-7.9-28.8-18.6-2.4-4.6-2.5-5.5-2.4-23.2.1-13.9.5-18.3 1.3-17.8.9.5.9.3.1-.8-.5-.8-1.1-4.3-1.2-7.9-.4-10.8-3.1-16.9-8.3-19.1-8.5-3.5-18.7 1.5-25.7 12.6-1.4 2.2-5.7 10.1-9.5 17.5-6.6 13-10.5 19.9-11.6 21-.4.3-1.2 1.7-2 3.2-2.1 4-3.4 3.4-2.9-1.2.2-2.2.1-4-.2-4-.4 0-.7-3.9-.9-8.8-.4-13.7-.3-18.1.4-19.2.3-.5.2-1-.2-1-.5 0-.7-1.7-.6-3.8.1-2 .5-12.2.8-22.7.4-10.4.9-19.3 1.1-19.7.3-.4.1-.8-.3-.8-.5 0-.9-2.4-1-5.3-.3-7.6-3-18.2-6.8-26.2-5.8-12.1-17.1-21.3-28.5-23l-4.5-.7v38.4z"/><path d="M128.5 190c-.3.6.1.7.9.4 1.8-.7 2.1-1.4.7-1.4-.6 0-1.3.4-1.6 1zM161 190c0 .5.5 1 1.1 1 .5 0 .7-.5.4-1-.3-.6-.8-1-1.1-1-.2 0-.4.4-.4 1z"/></svg>
